<svg id="Layer_1" data-name="Layer 1" xmlns="http://www.w3.org/2000/svg" xmlns:xlink="http://www.w3.org/1999/xlink" viewBox="0 0 3265 1024"><defs><style>.cls-1{fill:url(#linear-gradient);}.cls-2{fill:url(#linear-gradient-2);}.cls-3,.cls-5,.cls-6{fill:#fff;}.cls-4{fill:url(#linear-gradient-3);}.cls-5{opacity:0.5;}.cls-6,.cls-9{opacity:0.8;}.cls-7{fill:url(#linear-gradient-4);}.cls-8{fill:url(#linear-gradient-5);}.cls-10{fill:none;stroke:#fff;stroke-linecap:round;stroke-miterlimit:10;stroke-width:33px;}</style><linearGradient id="linear-gradient" x1="2242.36" y1="1.36" x2="3258.3" y2="1017.3" gradientUnits="userSpaceOnUse"><stop offset="0" stop-color="#00c2ff"/><stop offset="1" stop-color="#0094ff"/></linearGradient><linearGradient id="linear-gradient-2" x1="1130.36" y1="1.36" x2="2146.3" y2="1017.3" xlink:href="#linear-gradient"/><linearGradient id="linear-gradient-3" x1="1.36" y1="1.36" x2="1017.3" y2="1017.3" xlink:href="#linear-gradient"/><linearGradient id="linear-gradient-4" x1="852.22" y1="160.03" x2="170.33" y2="855.16" gradientUnits="userSpaceOnUse"><stop offset="0" stop-color="#fff" stop-opacity="0.8"/><stop offset="1" stop-color="#fff" stop-opacity="0.6"/></linearGradient><linearGradient id="linear-gradient-5" x1="3093.22" y1="160.03" x2="2411.33" y2="855.16" xlink:href="#linear-gradient-4"/></defs><title>logo</title><rect class="cls-1" x="2241" width="1024" height="1024"/><rect class="cls-2" x="1129" width="1024" height="1024"/><path class="cls-3" d="M1641,228.75A282.23,282.23,0,1,1,1530.76,251,281.39,281.39,0,0,1,1641,228.75m0-55c-186.81,0-338.25,151.44-338.25,338.25S1454.19,850.25,1641,850.25,1979.25,698.81,1979.25,512,1827.81,173.75,1641,173.75Z"/><path class="cls-3" d="M1303.08,877.42a27.5,27.5,0,0,1-19.45-46.95l675.84-675.84a27.51,27.51,0,1,1,38.9,38.9L1322.53,869.37A27.42,27.42,0,0,1,1303.08,877.42Z"/><path class="cls-3" d="M1974.51,872a27.41,27.41,0,0,1-19.44-8l-223-223A27.5,27.5,0,0,1,1770.93,602l223,223A27.5,27.5,0,0,1,1974.51,872Z"/><rect class="cls-4" width="1024" height="1024"/><circle class="cls-5" cx="174" cy="512" r="27"/><circle class="cls-5" cx="850" cy="512" r="27"/><circle class="cls-6" cx="185.52" cy="599.48" r="27"/><circle class="cls-6" cx="838.48" cy="424.52" r="27"/><circle class="cls-6" cx="424.52" cy="838.48" r="27"/><circle class="cls-6" cx="599.48" cy="185.52" r="27"/><circle class="cls-6" cx="512" cy="850" r="27"/><circle class="cls-6" cx="512" cy="174" r="27"/><circle class="cls-6" cx="599.48" cy="838.48" r="27"/><circle class="cls-6" cx="424.52" cy="185.52" r="27"/><circle class="cls-5" cx="343" cy="219.28" r="27"/><circle class="cls-6" cx="273" cy="273" r="27"/><circle class="cls-6" cx="804.72" cy="681" r="27"/><circle class="cls-6" cx="790.13" cy="780.11" r="27"/><circle class="cls-5" cx="832.13" cy="865.13" r="27"/><circle class="cls-6" cx="219.28" cy="343" r="27"/><circle class="cls-6" cx="838.48" cy="599.48" r="27"/><circle class="cls-6" cx="185.52" cy="424.52" r="27"/><path class="cls-7" d="M885.14,193.32c-2.92-2.86-74.26,72.67-124.86,123.14l-8.35-8.35c47.21-53.87,118-129.92,115.14-132.83s-76.6,70.31-128.82,119.17l-8.36-8.34c48.82-52.31,122-126,119.11-128.91s-79,67.93-132.85,115.14l-8.41-8.4c50.46-50.62,126-122,123.12-124.87S720.26,228.6,691.19,253c-21.82,18.36-32.52,48.6-25.13,73.66l2.23,2.21L298.18,699c-32.43-16.63-75.58-6.25-102.5,26.94-31.57,38.28-58.9,106.7-32.49,134.77,28,26.38,96.5-.88,134.78-32.48,33.13-26.84,43.49-69.92,27-102.32L695.3,355.57l2.27,2.25c23.81,6.56,53.77-1.71,73.47-24.67l.24-.08C771.44,332.87,888.06,196.22,885.14,193.32Z"/><path d="M325,725.86"/><path class="cls-8" d="M3126.14,193.32c-2.92-2.86-74.26,72.67-124.86,123.14l-8.35-8.35c47.21-53.87,118-129.92,115.14-132.83s-76.6,70.31-128.82,119.17l-8.36-8.34c48.82-52.31,122-126,119.11-128.91s-79,67.93-132.85,115.14l-8.41-8.4c50.46-50.62,126-122,123.12-124.87S2961.26,228.6,2932.19,253c-21.82,18.36-32.52,48.6-25.13,73.66l2.23,2.21L2539.18,699c-32.43-16.63-75.58-6.25-102.5,26.94-31.57,38.28-58.9,106.7-32.49,134.77,28,26.38,96.5-.88,134.78-32.48,33.13-26.84,43.49-69.92,27-102.32L2936.3,355.57l2.27,2.25c23.81,6.56,53.77-1.71,73.47-24.67l.24-.08C3012.44,332.87,3129.06,196.22,3126.14,193.32Z"/><g class="cls-9"><path class="cls-3" d="M2451.34,664.08a125.22,125.22,0,0,1,54.78-12.93h.09a283.4,283.4,0,0,1,357-400.16c5,2.11,9.91,4.38,14.76,6.76a117.9,117.9,0,0,1,28.43-35.39l0,0,0,0,8.61-7.25A336.78,336.78,0,0,0,2753,173.75c-186.81,0-338.25,151.44-338.25,338.25a336.79,336.79,0,0,0,36.16,152.29Z"/><path class="cls-3" d="M3043.08,358.6l-.14.16-6.72,8.15-1.68.61a115.91,115.91,0,0,1-27.27,19.53c2.38,4.83,4.64,9.73,6.74,14.71a283.26,283.26,0,0,1-400.33,356.93,121.27,121.27,0,0,1-3.86,30.38A127.38,127.38,0,0,1,2600.5,814,336.9,336.9,0,0,0,2753,850.25c186.81,0,338.25-151.44,338.25-338.25a336.78,336.78,0,0,0-41.1-161.72Z"/></g><line class="cls-10" x1="3086.5" y1="844.5" x2="2917.5" y2="675.5"/></svg>