<svg id="Layer_1" data-name="Layer 1" xmlns="http://www.w3.org/2000/svg" xmlns:xlink="http://www.w3.org/1999/xlink" viewBox="0 0 1024 1024"><defs><style>.cls-1{fill:url(#linear-gradient);}.cls-2,.cls-3{fill:#fff;}.cls-2{opacity:0.5;}.cls-3{opacity:0.8;}</style><linearGradient id="linear-gradient" x1="1.36" y1="512" x2="1017.3" y2="512" gradientUnits="userSpaceOnUse"><stop offset="0" stop-color="#0bf"/><stop offset="1" stop-color="#0079ff"/></linearGradient></defs><title>logo-icon-05</title><rect class="cls-1" width="1024" height="1024" rx="242.43" ry="242.43"/><circle class="cls-2" cx="174" cy="512" r="17.82"/><circle class="cls-2" cx="850" cy="512" r="17.82"/><circle class="cls-3" cx="185.52" cy="599.48" r="8.91"/><circle class="cls-3" cx="838.48" cy="424.52" r="8.91"/><circle class="cls-3" cx="424.52" cy="838.48" r="8.91"/><circle class="cls-3" cx="599.48" cy="185.52" r="8.91"/><circle class="cls-3" cx="512" cy="850" r="17.82"/><circle class="cls-3" cx="512" cy="174" r="17.82"/><circle class="cls-3" cx="599.48" cy="838.48" r="27"/><circle class="cls-3" cx="424.52" cy="185.52" r="27"/><circle class="cls-2" cx="343" cy="219.28" r="27"/><circle class="cls-3" cx="273" cy="273" r="27"/><circle class="cls-3" cx="804.72" cy="681" r="27"/><circle class="cls-3" cx="790.13" cy="785.11" r="17.82"/><circle class="cls-2" cx="832.13" cy="870.13" r="8.91"/><circle class="cls-3" cx="219.28" cy="343" r="27"/><circle class="cls-3" cx="838.48" cy="599.48" r="27"/><circle class="cls-3" cx="185.52" cy="424.52" r="27"/><circle class="cls-3" cx="235.5" cy="788.78" r="17.82"/><circle class="cls-2" cx="212.5" cy="686.78" r="17.82"/><circle class="cls-3" cx="173.5" cy="850.5" r="8.91"/><circle class="cls-3" cx="297.5" cy="726.78" r="27"/><circle class="cls-3" cx="359.5" cy="664.78" r="27"/><circle class="cls-2" cx="421.5" cy="602.78" r="27"/><circle class="cls-3" cx="483.5" cy="540.78" r="27"/><circle class="cls-3" cx="545.5" cy="478.78" r="27"/><circle class="cls-3" cx="607.5" cy="416.78" r="27"/><circle class="cls-2" cx="669.5" cy="354.78" r="27"/><circle class="cls-3" cx="731.5" cy="292.78" r="27"/><circle class="cls-3" cx="793.5" cy="230.78" r="17.82"/><circle class="cls-3" cx="855.5" cy="168.78" r="8.91"/></svg>