<svg id="Layer_1" data-name="Layer 1" xmlns="http://www.w3.org/2000/svg" xmlns:xlink="http://www.w3.org/1999/xlink" viewBox="0 0 1024 1024"><defs><style>.cls-1{fill:url(#linear-gradient);}.cls-2{fill:url(#linear-gradient-3);}.cls-3{fill:url(#linear-gradient-4);}.cls-4{fill:url(#linear-gradient-5);}.cls-5{fill:url(#linear-gradient-6);}.cls-6{fill:url(#linear-gradient-7);}.cls-7{fill:url(#linear-gradient-8);}.cls-8{fill:url(#linear-gradient-9);}.cls-9{fill:url(#linear-gradient-10);}.cls-10{fill:url(#linear-gradient-11);}.cls-11{fill:url(#linear-gradient-12);}.cls-12{fill:url(#linear-gradient-13);}.cls-13{fill:url(#linear-gradient-14);}.cls-14{fill:url(#linear-gradient-15);}.cls-15{fill:url(#linear-gradient-16);}.cls-16{fill:url(#linear-gradient-17);}.cls-17{fill:url(#linear-gradient-18);}.cls-18{fill:url(#linear-gradient-19);}.cls-19{fill:url(#linear-gradient-20);}.cls-20{fill:url(#linear-gradient-21);}.cls-21{fill:url(#linear-gradient-22);}.cls-22{fill:url(#linear-gradient-23);}.cls-23{fill:url(#linear-gradient-24);}.cls-24{fill:url(#linear-gradient-25);}.cls-25{fill:url(#linear-gradient-26);}.cls-26{fill:url(#linear-gradient-27);}.cls-27{fill:url(#linear-gradient-28);}.cls-28{fill:url(#linear-gradient-29);}.cls-29{fill:url(#linear-gradient-30);}.cls-30{fill:url(#linear-gradient-31);}</style><linearGradient id="linear-gradient" x1="7.64" y1="512" x2="1013.23" y2="512" gradientUnits="userSpaceOnUse"><stop offset="0" stop-color="#0bf"/><stop offset="1" stop-color="#0079ff"/></linearGradient><linearGradient id="linear-gradient-3" x1="7.64" y1="599.48" x2="1013.23" y2="599.48" xlink:href="#linear-gradient"/><linearGradient id="linear-gradient-4" x1="7.64" y1="424.52" x2="1013.23" y2="424.52" xlink:href="#linear-gradient"/><linearGradient id="linear-gradient-5" x1="7.64" y1="838.48" x2="1013.23" y2="838.48" gradientTransform="translate(90.48 -39.98) rotate(6.03)" xlink:href="#linear-gradient"/><linearGradient id="linear-gradient-6" x1="7.64" y1="185.52" x2="1013.23" y2="185.52" xlink:href="#linear-gradient"/><linearGradient id="linear-gradient-7" x1="7.64" y1="850" x2="1013.23" y2="850" xlink:href="#linear-gradient"/><linearGradient id="linear-gradient-8" x1="7.64" y1="174" x2="1013.23" y2="174" xlink:href="#linear-gradient"/><linearGradient id="linear-gradient-9" x1="7.64" y1="838.48" x2="1013.23" y2="838.48" gradientTransform="translate(239.14 -127.22) rotate(15.1)" xlink:href="#linear-gradient"/><linearGradient id="linear-gradient-10" x1="7.64" y1="185.52" x2="1013.23" y2="185.52" gradientTransform="translate(95.58 -140.73) rotate(21.16)" xlink:href="#linear-gradient"/><linearGradient id="linear-gradient-11" x1="7.64" y1="219.28" x2="1013.23" y2="219.28" xlink:href="#linear-gradient"/><linearGradient id="linear-gradient-12" x1="7.64" y1="273" x2="1013.23" y2="273" xlink:href="#linear-gradient"/><linearGradient id="linear-gradient-13" x1="7.64" y1="681" x2="1013.23" y2="681" gradientTransform="translate(1366.75 -210.88) rotate(81.98)" xlink:href="#linear-gradient"/><linearGradient id="linear-gradient-14" x1="7.64" y1="785.11" x2="1013.23" y2="785.11" xlink:href="#linear-gradient"/><linearGradient id="linear-gradient-15" x1="7.64" y1="870.13" x2="1013.23" y2="870.13" xlink:href="#linear-gradient"/><linearGradient id="linear-gradient-16" x1="7.64" y1="343" x2="1013.23" y2="343" gradientTransform="translate(42.61 -23.77) rotate(6.87)" xlink:href="#linear-gradient"/><linearGradient id="linear-gradient-17" x1="7.64" y1="599.48" x2="1013.23" y2="599.48" gradientTransform="translate(1211.9 -361.24) rotate(75.68)" xlink:href="#linear-gradient"/><linearGradient id="linear-gradient-18" x1="7.64" y1="424.52" x2="1013.23" y2="424.52" gradientTransform="translate(492.62 77.65) rotate(65.13)" xlink:href="#linear-gradient"/><linearGradient id="linear-gradient-19" x1="7.64" y1="788.78" x2="1013.23" y2="788.78" xlink:href="#linear-gradient"/><linearGradient id="linear-gradient-20" x1="7.64" y1="686.78" x2="1013.23" y2="686.78" xlink:href="#linear-gradient"/><linearGradient id="linear-gradient-21" x1="7.64" y1="850.5" x2="1013.23" y2="850.5" xlink:href="#linear-gradient"/><linearGradient id="linear-gradient-22" x1="7.64" y1="726.78" x2="1013.23" y2="726.78" xlink:href="#linear-gradient"/><linearGradient id="linear-gradient-23" x1="7.64" y1="664.78" x2="1013.23" y2="664.78" xlink:href="#linear-gradient"/><linearGradient id="linear-gradient-24" x1="7.64" y1="602.78" x2="1013.23" y2="602.78" xlink:href="#linear-gradient"/><linearGradient id="linear-gradient-25" x1="7.64" y1="540.78" x2="1013.23" y2="540.78" xlink:href="#linear-gradient"/><linearGradient id="linear-gradient-26" x1="7.64" y1="478.78" x2="1013.23" y2="478.78" xlink:href="#linear-gradient"/><linearGradient id="linear-gradient-27" x1="7.64" y1="416.78" x2="1013.23" y2="416.78" xlink:href="#linear-gradient"/><linearGradient id="linear-gradient-28" x1="7.64" y1="354.78" x2="1013.23" y2="354.78" xlink:href="#linear-gradient"/><linearGradient id="linear-gradient-29" x1="7.64" y1="292.78" x2="1013.23" y2="292.78" xlink:href="#linear-gradient"/><linearGradient id="linear-gradient-30" x1="7.64" y1="230.78" x2="1013.23" y2="230.78" xlink:href="#linear-gradient"/><linearGradient id="linear-gradient-31" x1="7.64" y1="168.78" x2="1013.23" y2="168.78" xlink:href="#linear-gradient"/></defs><title>logo</title><circle class="cls-1" cx="174" cy="512" r="17.82"/><circle class="cls-1" cx="850" cy="512" r="17.82"/><path class="cls-2" d="M183.21,590.87a8.91,8.91,0,1,0,10.91,6.3A8.92,8.92,0,0,0,183.21,590.87Z"/><path class="cls-3" d="M836.18,415.91a8.91,8.91,0,1,0,10.91,6.3A8.91,8.91,0,0,0,836.18,415.91Z"/><circle class="cls-4" cx="424.52" cy="838.48" r="8.91" transform="translate(-85.78 49.27) rotate(-6.03)"/><path class="cls-5" d="M601.79,176.91a8.91,8.91,0,1,0,6.3,10.91A8.92,8.92,0,0,0,601.79,176.91Z"/><circle class="cls-6" cx="512" cy="850" r="17.82"/><circle class="cls-7" cx="512" cy="174" r="17.82"/><circle class="cls-8" cx="599.48" cy="838.48" r="27" transform="translate(-197.74 185.13) rotate(-15.1)"/><circle class="cls-9" cx="424.52" cy="185.52" r="27" transform="translate(-38.34 165.74) rotate(-21.16)"/><path class="cls-10" d="M329.5,195.9a27,27,0,1,0,36.88,9.88A27,27,0,0,0,329.5,195.9Z"/><circle class="cls-11" cx="273" cy="273" r="27"/><circle class="cls-12" cx="804.72" cy="681" r="27" transform="translate(18.08 1382.8) rotate(-81.98)"/><path class="cls-13" d="M799,769.68A17.82,17.82,0,1,0,805.57,794,17.82,17.82,0,0,0,799,769.68Z"/><path class="cls-14" d="M836.59,862.41a8.91,8.91,0,1,0,3.26,12.17A8.91,8.91,0,0,0,836.59,862.41Z"/><circle class="cls-15" cx="219.28" cy="343" r="27" transform="translate(-39.46 28.7) rotate(-6.87)"/><circle class="cls-16" cx="838.48" cy="599.48" r="27" transform="translate(50.21 1263.6) rotate(-75.68)"/><circle class="cls-17" cx="185.52" cy="424.52" r="27" transform="translate(-277.65 414.26) rotate(-65.13)"/><path class="cls-18" d="M226.59,773.35a17.82,17.82,0,1,0,24.34,6.52A17.82,17.82,0,0,0,226.59,773.35Z"/><path class="cls-19" d="M203.59,671.35a17.82,17.82,0,1,0,24.34,6.52A17.82,17.82,0,0,0,203.59,671.35Z"/><path class="cls-20" d="M167.2,844.2a8.91,8.91,0,1,0,12.6,0A8.91,8.91,0,0,0,167.2,844.2Z"/><path class="cls-21" d="M284,703.4a27,27,0,1,0,36.88,9.88A27,27,0,0,0,284,703.4Z"/><path class="cls-22" d="M346,641.4a27,27,0,1,0,36.88,9.88A27,27,0,0,0,346,641.4Z"/><path class="cls-23" d="M408,579.4a27,27,0,1,0,36.88,9.88A27,27,0,0,0,408,579.4Z"/><path class="cls-24" d="M470,517.4a27,27,0,1,0,36.88,9.88A27,27,0,0,0,470,517.4Z"/><path class="cls-25" d="M532,455.4a27,27,0,1,0,36.88,9.88A27,27,0,0,0,532,455.4Z"/><path class="cls-26" d="M594,393.4a27,27,0,1,0,36.88,9.88A27,27,0,0,0,594,393.4Z"/><path class="cls-27" d="M656,331.4a27,27,0,1,0,36.88,9.88A27,27,0,0,0,656,331.4Z"/><path class="cls-28" d="M718,269.4a27,27,0,1,0,36.88,9.88A27,27,0,0,0,718,269.4Z"/><path class="cls-29" d="M784.59,215.35a17.82,17.82,0,1,0,24.34,6.52A17.82,17.82,0,0,0,784.59,215.35Z"/><path class="cls-30" d="M851,161.07a8.91,8.91,0,1,0,12.18,3.26A8.91,8.91,0,0,0,851,161.07Z"/></svg>